<svg xmlns="http://www.w3.org/2000/svg" width="34.154" height="40.986" viewBox="0 0 34.154 40.986">
    <g id="notification" transform="translate(-42.675)" opacity="0.85">
      <g id="Group_354" data-name="Group 354" transform="translate(42.675)">
        <g id="Group_353" data-name="Group 353">
          <path id="Path_299" data-name="Path 299" d="M76.708,34.57l-2.932-4.888a14.518,14.518,0,0,1-2.07-7.47V17.932A11.969,11.969,0,0,0,63.167,6.481V3.416a3.416,3.416,0,0,0-6.831,0V6.481A11.969,11.969,0,0,0,47.8,17.932v4.281a14.527,14.527,0,0,1-2.068,7.468L42.8,34.569a.855.855,0,0,0,.731,1.295H75.975a.854.854,0,0,0,.733-1.293Z" transform="translate(-42.675)" fill="#184b9b"/>
        </g>
      </g>
      <g id="Group_356" data-name="Group 356" transform="translate(54.374 37.571)">
        <g id="Group_355" data-name="Group 355">
          <path id="Path_300" data-name="Path 300" d="M188.815,469.333a5.941,5.941,0,0,0,10.755,0Z" transform="translate(-188.815 -469.333)" fill="#184b9b"/>
        </g>
      </g>
    </g>
  </svg>
