<svg xmlns="http://www.w3.org/2000/svg" width="334" height="516" viewBox="0 0 334 516">
  <g id="Groupe_378" data-name="Groupe 378" transform="translate(-834 -191)">
    <text id="recevoir_rendez-vous" data-name="recevoir rendez-vous" transform="translate(908 312)" font-size="15" font-family="Poppins-Regular, Poppins"><tspan x="0" y="0">recevoir rendez-vous</tspan></text>
    <text id="le_rendez_vous_a_été_reprogrammé" data-name="le rendez vous a été reprogrammé" transform="translate(908 429)" font-size="15" font-family="Poppins-Regular, Poppins"><tspan x="0" y="0">le rendez vous a été reprogrammé</tspan></text>
    <text id="le_rendez-vous_est_validée" data-name="le rendez-vous est validée" transform="translate(908 549)" font-size="15" font-family="Poppins-Regular, Poppins"><tspan x="0" y="0">le rendez-vous est validée</tspan></text>
    <line id="Ligne_12" data-name="Ligne 12" y2="51.68" transform="translate(864.92 339.92)" fill="none" stroke="#707070" stroke-linecap="round" stroke-width="3"/>
    <line id="Ligne_20" data-name="Ligne 20" y2="51.68" transform="translate(865 460.32)" fill="none" stroke="#707070" stroke-linecap="round" stroke-width="3"/>
    <line id="Ligne_21" data-name="Ligne 21" y2="51.68" transform="translate(865 581)" fill="none" stroke="#707070" stroke-linecap="round" stroke-width="3"/>
    <line id="Ligne_19" data-name="Ligne 19" y2="51.68" transform="translate(864.92 221.6)" fill="none" stroke="#707070" stroke-linecap="round" stroke-width="3"/>
    <g id="Groupe_341" data-name="Groupe 341" transform="translate(843.16 284.84)">
      <g id="Ellipse_244" data-name="Ellipse 244" transform="translate(-0.16 0.16)" fill="#e2f1f0" stroke="#707070" stroke-width="3">
        <ellipse cx="22" cy="21.5" rx="22" ry="21.5" stroke="none"/>
        <ellipse cx="22" cy="21.5" rx="20.5" ry="20" fill="none"/>
      </g>
      <g id="Groupe_262" data-name="Groupe 262" transform="translate(10.2 10.2)" opacity="0.66">
        <circle id="Ellipse_14" data-name="Ellipse 14" cx="11.56" cy="11.56" r="11.56" transform="translate(0 0)" fill="#466400"/>
        <g id="check" transform="translate(4.71 7.024)">
          <path id="Tracé_242" data-name="Tracé 242" d="M7.116,13.968a.654.654,0,0,1-.925,0l-3.7-3.7a.981.981,0,0,1,0-1.388l.463-.463a.981.981,0,0,1,1.388,0l2.307,2.307,6.234-6.234a.981.981,0,0,1,1.388,0l.463.463a.981.981,0,0,1,0,1.388Z" transform="translate(-2.208 -4.207)" fill="#f3f5f4"/>
        </g>
      </g>
    </g>
    <g id="Ellipse_244-2" data-name="Ellipse 244" transform="translate(855 191)" fill="#707070" stroke="#707070" stroke-width="1">
      <circle cx="9.5" cy="9.5" r="9.5" stroke="none"/>
      <circle cx="9.5" cy="9.5" r="9" fill="none"/>
    </g>
    <g id="Groupe_366" data-name="Groupe 366" transform="translate(843.16 403.84)">
      <g id="Ellipse_244-3" data-name="Ellipse 244" transform="translate(-0.16 0.16)" fill="#e2f1f0" stroke="#707070" stroke-width="3">
        <ellipse cx="22" cy="21.5" rx="22" ry="21.5" stroke="none"/>
        <ellipse cx="22" cy="21.5" rx="20.5" ry="20" fill="none"/>
      </g>
      <g id="Groupe_262-2" data-name="Groupe 262" transform="translate(10.2 10.2)" opacity="0.66">
        <circle id="Ellipse_14-2" data-name="Ellipse 14" cx="11.56" cy="11.56" r="11.56" transform="translate(0 0)" fill="#466400"/>
        <g id="check-2" data-name="check" transform="translate(4.71 7.024)">
          <path id="Tracé_242-2" data-name="Tracé 242" d="M7.116,13.968a.654.654,0,0,1-.925,0l-3.7-3.7a.981.981,0,0,1,0-1.388l.463-.463a.981.981,0,0,1,1.388,0l2.307,2.307,6.234-6.234a.981.981,0,0,1,1.388,0l.463.463a.981.981,0,0,1,0,1.388Z" transform="translate(-2.208 -4.207)" fill="#f3f5f4"/>
        </g>
      </g>
    </g>
    <g id="Groupe_368" data-name="Groupe 368" transform="translate(843.16 523.84)">
      <g id="Ellipse_244-4" data-name="Ellipse 244" transform="translate(-0.16 0.16)" fill="#e2f1f0" stroke="#707070" stroke-width="3">
        <ellipse cx="22" cy="21.5" rx="22" ry="21.5" stroke="none"/>
        <ellipse cx="22" cy="21.5" rx="20.5" ry="20" fill="none"/>
      </g>
      <g id="Groupe_262-3" data-name="Groupe 262" transform="translate(10.2 10.2)" opacity="0.66">
        <circle id="Ellipse_14-3" data-name="Ellipse 14" cx="11.56" cy="11.56" r="11.56" transform="translate(0 0)" fill="#466400"/>
        <g id="check-3" data-name="check" transform="translate(4.71 7.024)">
          <path id="Tracé_242-3" data-name="Tracé 242" d="M7.116,13.968a.654.654,0,0,1-.925,0l-3.7-3.7a.981.981,0,0,1,0-1.388l.463-.463a.981.981,0,0,1,1.388,0l2.307,2.307,6.234-6.234a.981.981,0,0,1,1.388,0l.463.463a.981.981,0,0,1,0,1.388Z" transform="translate(-2.208 -4.207)" fill="#f3f5f4"/>
        </g>
      </g>
    </g>
    <text id="vous_avez_annulé_le_rendez-vous" data-name="vous avez annulé le rendez-vous" transform="translate(915 682)" font-size="14" font-family="Poppins-SemiBold, Poppins" font-weight="600"><tspan x="0" y="0">vous avez annulé le rendez-vous</tspan></text>
    <g id="Groupe_345" data-name="Groupe 345" transform="translate(834 647.16)">
      <g id="Ellipse_244-5" data-name="Ellipse 244" transform="translate(0 -0.16)" fill="#e2f1f0" stroke="#000" stroke-width="3">
        <circle cx="30" cy="30" r="30" stroke="none"/>
        <circle cx="30" cy="30" r="28.5" fill="none"/>
      </g>
      <g id="Groupe_364" data-name="Groupe 364" transform="translate(11.653 11.493)">
        <circle id="Ellipse_14-4" data-name="Ellipse 14" cx="18.347" cy="18.347" r="18.347" fill="#ff1c42"/>
        <path id="vote" d="M137.06,162.175l-4.21,4.21-4.21-4.21a2.393,2.393,0,0,0-3.385,3.385l4.21,4.21-4.21,4.21a2.393,2.393,0,1,0,3.385,3.385l4.21-4.21,4.21,4.21a2.393,2.393,0,0,0,3.385-3.385l-4.21-4.21,4.21-4.21a2.393,2.393,0,0,0-3.385-3.385Z" transform="translate(-114.41 -151.329)" fill="#f3f5f4" fill-rule="evenodd"/>
      </g>
    </g>
  </g>
</svg>
