<svg xmlns="http://www.w3.org/2000/svg" width="336" height="395" viewBox="0 0 336 395">
  <g id="Groupe_367" data-name="Groupe 367" transform="translate(-839 -191)">
    <text id="un_rendez-vous_envoyé" data-name="un rendez-vous envoyé" transform="translate(912 312)" font-size="15" font-family="Poppins-Regular, Poppins"><tspan x="0" y="0">un rendez-vous envoyé</tspan></text>
    <text id="demande_d_une_reprogrammation_" data-name="demande d&apos;une reprogrammation " transform="translate(912 429)" font-size="15" font-family="Poppins-Regular, Poppins"><tspan x="0" y="0">demande d&apos;une reprogrammation </tspan></text>
    <line id="Ligne_12" data-name="Ligne 12" y2="51.68" transform="translate(868.92 339.92)" fill="none" stroke="#707070" stroke-linecap="round" stroke-width="3"/>
    <line id="Ligne_20" data-name="Ligne 20" y2="51.68" transform="translate(869 460.32)" fill="none" stroke="#707070" stroke-linecap="round" stroke-width="3"/>
    <line id="Ligne_19" data-name="Ligne 19" y2="51.68" transform="translate(868.92 221.6)" fill="none" stroke="#707070" stroke-linecap="round" stroke-width="3"/>
    <g id="Groupe_341" data-name="Groupe 341" transform="translate(847.16 284.84)">
      <g id="Ellipse_244" data-name="Ellipse 244" transform="translate(-0.16 0.16)" fill="#e2f1f0" stroke="#707070" stroke-width="3">
        <ellipse cx="22" cy="21.5" rx="22" ry="21.5" stroke="none"/>
        <ellipse cx="22" cy="21.5" rx="20.5" ry="20" fill="none"/>
      </g>
      <g id="Groupe_262" data-name="Groupe 262" transform="translate(10.2 10.2)" opacity="0.66">
        <circle id="Ellipse_14" data-name="Ellipse 14" cx="11.56" cy="11.56" r="11.56" transform="translate(0 0)" fill="#466400"/>
        <g id="check" transform="translate(4.71 7.024)">
          <path id="Tracé_242" data-name="Tracé 242" d="M7.116,13.968a.654.654,0,0,1-.925,0l-3.7-3.7a.981.981,0,0,1,0-1.388l.463-.463a.981.981,0,0,1,1.388,0l2.307,2.307,6.234-6.234a.981.981,0,0,1,1.388,0l.463.463a.981.981,0,0,1,0,1.388Z" transform="translate(-2.208 -4.207)" fill="#f3f5f4"/>
        </g>
      </g>
    </g>
    <g id="Ellipse_244-2" data-name="Ellipse 244" transform="translate(859 191)" fill="#707070" stroke="#707070" stroke-width="1">
      <circle cx="9.5" cy="9.5" r="9.5" stroke="none"/>
      <circle cx="9.5" cy="9.5" r="9" fill="none"/>
    </g>
    <g id="Groupe_366" data-name="Groupe 366" transform="translate(847.16 403.84)">
      <g id="Ellipse_244-3" data-name="Ellipse 244" transform="translate(-0.16 0.16)" fill="#e2f1f0" stroke="#707070" stroke-width="3">
        <ellipse cx="22" cy="21.5" rx="22" ry="21.5" stroke="none"/>
        <ellipse cx="22" cy="21.5" rx="20.5" ry="20" fill="none"/>
      </g>
      <g id="Groupe_262-2" data-name="Groupe 262" transform="translate(10.2 10.2)" opacity="0.66">
        <circle id="Ellipse_14-2" data-name="Ellipse 14" cx="11.56" cy="11.56" r="11.56" transform="translate(0 0)" fill="#466400"/>
        <g id="check-2" data-name="check" transform="translate(4.71 7.024)">
          <path id="Tracé_242-2" data-name="Tracé 242" d="M7.116,13.968a.654.654,0,0,1-.925,0l-3.7-3.7a.981.981,0,0,1,0-1.388l.463-.463a.981.981,0,0,1,1.388,0l2.307,2.307,6.234-6.234a.981.981,0,0,1,1.388,0l.463.463a.981.981,0,0,1,0,1.388Z" transform="translate(-2.208 -4.207)" fill="#f3f5f4"/>
        </g>
      </g>
    </g>
    <text id="En_attente_de_la_décision_du_patient" data-name="En attente de la décision du patient" transform="translate(920 561)" font-size="14" font-family="Poppins-SemiBold, Poppins" font-weight="600"><tspan x="0" y="0">En attente de la décision du patient</tspan></text>
    <g id="Groupe_345" data-name="Groupe 345" transform="translate(839 526.16)">
      <g id="Ellipse_244-4" data-name="Ellipse 244" transform="translate(0 -0.16)" fill="#e2f1f0" stroke="#000" stroke-width="3">
        <circle cx="30" cy="30" r="30" stroke="none"/>
        <circle cx="30" cy="30" r="28.5" fill="none"/>
      </g>
      <g id="Groupe_346" data-name="Groupe 346" transform="translate(11.973 11.813)">
        <path id="clock_1_" data-name="clock (1)" d="M18.027,0A18.027,18.027,0,1,0,36.054,18.027,18.047,18.047,0,0,0,18.027,0ZM26.6,27.351a1.5,1.5,0,0,1-2.124,0L16.965,19.84a1.5,1.5,0,0,1-.44-1.062V9.013a1.5,1.5,0,1,1,3,0v9.143L26.6,25.227a1.5,1.5,0,0,1,0,2.124Zm0,0" transform="translate(0 0)" fill="#3a7afe"/>
      </g>
    </g>
  </g>
</svg>
