<svg xmlns="http://www.w3.org/2000/svg" width="35.12" height="34" viewBox="0 0 35.12 34">
  <g id="house-black-silhouette-without-door" transform="translate(0 -4.89)">
    <path id="Tracé_290" data-name="Tracé 290" d="M34.68,21.479a1.675,1.675,0,0,0-.137-2.4L18.847,5.349a1.957,1.957,0,0,0-2.552.029L.546,19.815A1.665,1.665,0,0,0,.47,22.208l.395.411a1.722,1.722,0,0,0,2.363.181l1.177-1.054V37.177A1.713,1.713,0,0,0,6.119,38.89h6.139a1.713,1.713,0,0,0,1.713-1.713v-10.8H21.8v10.8a1.619,1.619,0,0,0,1.609,1.713h6.506a1.713,1.713,0,0,0,1.713-1.713V21.963l.726.637c.4.352,1.241.07,1.878-.631Z" transform="translate(0)" fill="#184b9b"/>
  </g>
</svg>
