<svg xmlns="http://www.w3.org/2000/svg" width="37.624" height="37.624" viewBox="0 0 37.624 37.624">
  <g id="logout" transform="translate(0 -0.004)">
    <path id="Tracé_297" data-name="Tracé 297" d="M23.515,20.383a1.567,1.567,0,0,0-1.568,1.568v6.271a1.569,1.569,0,0,1-1.568,1.568h-4.7V6.274a3.16,3.16,0,0,0-2.135-2.98l-.464-.155h7.3a1.569,1.569,0,0,1,1.568,1.568v4.7a1.568,1.568,0,1,0,3.135,0v-4.7a4.709,4.709,0,0,0-4.7-4.7H3.527A1.231,1.231,0,0,0,3.36.038C3.284.032,3.212,0,3.135,0A3.138,3.138,0,0,0,0,3.139V31.357a3.16,3.16,0,0,0,2.135,2.98l9.434,3.145a3.246,3.246,0,0,0,.972.146,3.138,3.138,0,0,0,3.135-3.135V32.925h4.7a4.709,4.709,0,0,0,4.7-4.7V21.951a1.567,1.567,0,0,0-1.568-1.568Zm0,0" fill="#949494"/>
    <path id="Tracé_298" data-name="Tracé 298" d="M294.117,113.4l-6.271-6.271a1.567,1.567,0,0,0-2.676,1.108v4.7H278.9a1.568,1.568,0,1,0,0,3.135h6.271v4.7a1.567,1.567,0,0,0,2.676,1.109l6.271-6.271a1.566,1.566,0,0,0,0-2.217Zm0,0" transform="translate(-256.953 -98.824)" fill="#949494"/>
  </g>
</svg>
