<svg xmlns="http://www.w3.org/2000/svg" width="40.34" height="32" viewBox="0 0 40.34 32">
  <g id="audience" transform="translate(-20.377 -111.445)">
    <g id="Groupe_323" data-name="Groupe 323" transform="translate(20.377 130.328)">
      <g id="Groupe_322" data-name="Groupe 322">
        <path id="Tracé_291" data-name="Tracé 291" d="M166.487,283.265a9.971,9.971,0,0,0-4.795-1.22h-4.127A10.022,10.022,0,0,0,147.54,292.07v3.093h24.177V292.07A10.021,10.021,0,0,0,166.487,283.265Z" transform="translate(-147.54 -282.045)" fill="#949494"/>
      </g>
    </g>
    <g id="Groupe_325" data-name="Groupe 325" transform="translate(41.854 127.581)">
      <g id="Groupe_324" data-name="Groupe 324" transform="translate(0 0)">
        <path id="Tracé_292" data-name="Tracé 292" d="M350.448,257.225h-3.431a9.925,9.925,0,0,0-5.437,1.613A13.371,13.371,0,0,1,347.6,270v1.454h12.843V267.22A10.006,10.006,0,0,0,350.448,257.225Z" transform="translate(-341.58 -257.225)" fill="#949494"/>
      </g>
    </g>
    <g id="Groupe_329" data-name="Groupe 329" transform="translate(42.27 112.549)">
      <g id="Groupe_328" data-name="Groupe 328">
        <path id="Tracé_294" data-name="Tracé 294" d="M352.068,121.416h-.054a7.112,7.112,0,0,0,.064,14.2h.054a6.522,6.522,0,0,0,4.786-2.161,7.264,7.264,0,0,0,1.892-5A6.937,6.937,0,0,0,352.068,121.416Z" transform="translate(-345.337 -121.416)" fill="#949494"/>
      </g>
    </g>
    <g id="Groupe_333" data-name="Groupe 333" transform="translate(24.7 111.445)">
      <g id="Groupe_332" data-name="Groupe 332" transform="translate(0 0)">
        <path id="Tracé_296" data-name="Tracé 296" d="M194.366,111.445a8,8,0,0,0-7.766,8.205,8.258,8.258,0,0,0,4.446,7.416,7.385,7.385,0,0,0,6.639,0,8.258,8.258,0,0,0,4.446-7.416A8,8,0,0,0,194.366,111.445Z" transform="translate(-186.6 -111.445)" fill="#949494"/>
      </g>
    </g>
  </g>
</svg>
