<svg xmlns="http://www.w3.org/2000/svg" width="26.581" height="35.181" viewBox="0 0 26.581 35.181">
  <g id="audience" transform="translate(-20.377 -111.445)">
    <g id="Groupe_323" data-name="Groupe 323" transform="translate(20.377 132.205)">
      <g id="Groupe_322" data-name="Groupe 322">
        <path id="Tracé_291" data-name="Tracé 291" d="M168.371,283.386a10.963,10.963,0,0,0-5.272-1.341h-4.538a11.019,11.019,0,0,0-11.021,11.023v3.4h26.581v-3.4a11.017,11.017,0,0,0-5.75-9.68Z" transform="translate(-147.54 -282.045)" fill="#184b9b"/>
      </g>
    </g>
    <g id="Groupe_333" data-name="Groupe 333" transform="translate(25.13 111.445)">
      <g id="Groupe_332" data-name="Groupe 332">
        <path id="Tracé_296" data-name="Tracé 296" d="M195.138,111.445a8.8,8.8,0,0,0-8.538,9.021,9.079,9.079,0,0,0,4.888,8.153,8.119,8.119,0,0,0,7.3,0,9.079,9.079,0,0,0,4.888-8.153,8.8,8.8,0,0,0-8.538-9.021Z" transform="translate(-186.6 -111.445)" fill="#184b9b"/>
      </g>
    </g>
  </g>
</svg>
