<svg xmlns="http://www.w3.org/2000/svg" width="31.582" height="35.486" viewBox="0 0 31.582 35.486">
  <g id="tableau-statistique" transform="translate(-20.484)">
    <g id="Groupe_357" data-name="Groupe 357" transform="translate(20.484)">
      <path id="Tracé_301" data-name="Tracé 301" d="M28.248,186.441H21.437a.953.953,0,0,0-.953.953V203.21a.953.953,0,0,0,.953.953h6.811a.953.953,0,0,0,.953-.953V187.394A.953.953,0,0,0,28.248,186.441Z" transform="translate(-20.484 -168.679)" fill="#184b9b"/>
      <path id="Tracé_302" data-name="Tracé 302" d="M148.248,0h-6.811a.953.953,0,0,0-.953.953V34.532a.953.953,0,0,0,.953.953h6.811a.953.953,0,0,0,.953-.953V.953A.953.953,0,0,0,148.248,0Z" transform="translate(-129.052)" fill="#184b9b"/>
      <path id="Tracé_303" data-name="Tracé 303" d="M268.248,115.257h-6.811a.953.953,0,0,0-.953.953v22.6a.953.953,0,0,0,.953.953h6.811a.953.953,0,0,0,.953-.953v-22.6a.953.953,0,0,0-.953-.953Z" transform="translate(-237.619 -104.277)" fill="#184b9b"/>
    </g>
  </g>
</svg>
